<svg width="56" height="56" viewBox="0 0 56 56" fill="none" xmlns="http://www.w3.org/2000/svg">
<path d="M3.53553 31.5365C1.58291 29.5839 1.58291 26.4181 3.53553 24.4654L24.4647 3.53626C26.4173 1.58363 29.5832 1.58364 31.5358 3.53626L52.465 24.4654C54.4176 26.4181 54.4176 29.5839 52.465 31.5365L31.5358 52.4657C29.5832 54.4183 26.4173 54.4183 24.4647 52.4657L3.53553 31.5365Z" fill="#2F6DCE"/>
<path fill-rule="evenodd" clip-rule="evenodd" d="M25.2917 20.873L28 21.9927L30.7083 20.873C32.4469 20.1543 34.3864 20.1543 36.125 20.873L38.1523 21.7111C38.5636 21.8812 38.8333 22.2929 38.8333 22.7507V36.0136C38.8333 36.632 38.3483 37.1332 37.75 37.1332C37.6122 37.1332 37.4756 37.106 37.3477 37.0531L36.125 36.5477C34.3864 35.829 32.4469 35.829 30.7083 36.5477L28 37.6673L25.2917 36.5477C23.5531 35.829 21.6136 35.829 19.875 36.5477L18.6523 37.0531C18.0968 37.2828 17.4663 37.0035 17.2441 36.4294C17.193 36.2972 17.1667 36.156 17.1667 36.0136V22.7507C17.1667 22.2929 17.4364 21.8812 17.8476 21.7111L19.875 20.873C21.6136 20.1543 23.5531 20.1543 25.2917 20.873ZM20.7027 22.8753L19.3333 23.4415V34.4326C21.5275 33.6092 23.9456 33.6468 26.1194 34.5454L26.9167 34.8745V23.8895L24.4639 22.8753C23.2554 22.3758 21.9113 22.3758 20.7027 22.8753ZM31.5361 22.8753L29.0833 23.8884V34.8745L29.8806 34.5454C32.0543 33.6468 34.4724 33.6092 36.6667 34.4326V23.4415L35.2972 22.8753C34.0887 22.3758 32.7446 22.3758 31.5361 22.8753Z" fill="white"/>
</svg>
