<svg width="56" height="56" viewBox="0 0 56 56" fill="none" xmlns="http://www.w3.org/2000/svg">
<path d="M3.53553 31.5365C1.58291 29.5839 1.58291 26.4181 3.53553 24.4654L24.4647 3.53626C26.4173 1.58363 29.5832 1.58364 31.5358 3.53626L52.465 24.4654C54.4176 26.4181 54.4176 29.5839 52.465 31.5365L31.5358 52.4657C29.5832 54.4183 26.4173 54.4183 24.4647 52.4657L3.53553 31.5365Z" fill="#2F6DCE"/>
<path fill-rule="evenodd" clip-rule="evenodd" d="M18.4496 21.4496L21.4496 18.4496C21.8402 18.0591 22.4733 18.0591 22.8638 18.4496C23.2544 18.8402 23.2544 19.4733 22.8638 19.8638L19.8638 22.8638C19.4733 23.2544 18.8402 23.2544 18.4496 22.8638C18.0591 22.4733 18.0591 21.8402 18.4496 21.4496ZM34.8638 18.4496L37.8638 21.4496C38.2544 21.8402 38.2544 22.4733 37.8638 22.8638C37.4733 23.2544 36.8402 23.2544 36.4496 22.8638L33.4496 19.8638C33.0591 19.4733 33.0591 18.8402 33.4496 18.4496C33.8402 18.0591 34.4733 18.0591 34.8638 18.4496ZM28.1567 38.1567C33.1273 38.1567 37.1567 34.1273 37.1567 29.1567C37.1567 24.1862 33.1273 20.1567 28.1567 20.1567C23.1862 20.1567 19.1567 24.1862 19.1567 29.1567C19.1567 34.1273 23.1862 38.1567 28.1567 38.1567ZM28.1567 36.1567C24.2907 36.1567 21.1567 33.0227 21.1567 29.1567C21.1567 25.2907 24.2907 22.1567 28.1567 22.1567C32.0227 22.1567 35.1567 25.2907 35.1567 29.1567C35.1567 33.0227 32.0227 36.1567 28.1567 36.1567ZM28.1567 24.1567C28.709 24.1567 29.1567 24.6045 29.1567 25.1567V27.7425L30.8638 29.4496C31.2544 29.8402 31.2544 30.4733 30.8638 30.8638C30.4733 31.2544 29.8402 31.2544 29.4496 30.8638L27.4496 28.8638C27.2621 28.6763 27.1567 28.422 27.1567 28.1567V25.1567C27.1567 24.6045 27.6045 24.1567 28.1567 24.1567Z" fill="white"/>
</svg>
