<svg width="30" height="30" viewBox="0 0 30 30" fill="none" xmlns="http://www.w3.org/2000/svg">
<path fill-rule="evenodd" clip-rule="evenodd" d="M17.0202 15.0003L24.5816 7.43892C25.1401 6.88035 25.1401 5.97749 24.5816 5.41893C24.023 4.86036 23.1202 4.86036 22.5616 5.41893L15.0002 12.9803L7.4389 5.41893C6.88034 4.86036 5.97749 4.86036 5.41892 5.41893C4.86036 5.97749 4.86036 6.88035 5.41892 7.43892L12.9803 15.0003L5.41892 22.5617C4.86036 23.1203 4.86036 24.0231 5.41892 24.5817C5.69749 24.8603 6.0632 25.0003 6.42891 25.0003C6.79462 25.0003 7.16033 24.8603 7.4389 24.5817L15.0002 17.0203L22.5616 24.5817C22.8402 24.8603 23.2059 25.0003 23.5716 25.0003C23.9373 25.0003 24.303 24.8603 24.5816 24.5817C25.1401 24.0231 25.1401 23.1203 24.5816 22.5617L17.0202 15.0003Z" fill="#E8F6FF"/>
</svg>
