<svg width="20" height="20" viewBox="0 0 20 20" fill="none" xmlns="http://www.w3.org/2000/svg">
<path fill-rule="evenodd" clip-rule="evenodd" d="M15.8333 4.3335C17.214 4.3335 18.3333 5.45278 18.3333 6.8335V15.1668C18.3333 16.5475 17.214 17.6668 15.8333 17.6668H4.16666C2.78594 17.6668 1.66666 16.5475 1.66666 15.1668V6.8335C1.66666 5.45278 2.78594 4.3335 4.16666 4.3335H15.8333ZM16.6667 7.10681L10.5487 12.4606C10.2607 12.7126 9.84253 12.7336 9.53283 12.5236L9.45123 12.4606L3.33332 7.10764V15.1668C3.33332 15.627 3.70642 16.0001 4.16666 16.0001H15.8333C16.2936 16.0001 16.6667 15.627 16.6667 15.1668V7.10681ZM15.4 6.00015H4.59832L9.99999 10.7262L15.4 6.00015Z" fill="#2F6DCE"/>
</svg>
