<svg width="20" height="20" viewBox="0 0 20 20" fill="none" xmlns="http://www.w3.org/2000/svg">
<path fill-rule="evenodd" clip-rule="evenodd" d="M9.99999 1.66699C14.6024 1.66699 18.3333 5.39795 18.3333 10.0003C18.3333 14.6027 14.6024 18.3337 9.99999 18.3337C5.39762 18.3337 1.66666 14.6027 1.66666 10.0003C1.66666 5.39795 5.39762 1.66699 9.99999 1.66699ZM12.477 10.8343H7.52295C7.6154 12.5039 7.9826 14.0239 8.54442 15.1475C9.06767 16.194 9.62679 16.667 9.99999 16.667C10.3732 16.667 10.9323 16.194 11.4556 15.1475C12.0174 14.0239 12.3846 12.5039 12.477 10.8343ZM16.615 10.8345L14.146 10.8347C14.0452 12.863 13.5808 14.6772 12.885 16.013C14.8834 15.0517 16.3293 13.1232 16.615 10.8345ZM5.85395 10.8347L3.385 10.8345C3.6707 13.1232 5.11659 15.0516 7.11553 16.0124C6.46278 14.7606 6.01374 13.0879 5.87708 11.2124L5.85395 10.8347ZM7.11502 3.98764L7.09323 3.99905C5.10565 4.96353 3.66935 6.88633 3.38492 9.16686L5.85391 9.16679C5.95464 7.1382 6.41911 5.32362 7.11502 3.98764ZM9.99999 3.33366L9.93225 3.33859C9.56114 3.39129 9.03689 3.8682 8.54442 4.85313C7.98251 5.97695 7.61528 7.49727 7.52291 9.16717H12.4771C12.3847 7.49727 12.0175 5.97695 11.4556 4.85313C10.9323 3.80664 10.3732 3.33366 9.99999 3.33366ZM12.8845 3.98825L12.9033 4.02301C13.5891 5.35569 14.0463 7.15637 14.1461 9.16734L16.6151 9.16699C16.3296 6.87787 14.8836 4.94916 12.8845 3.98825Z" fill="#2F6DCE"/>
</svg>
