<svg width="20" height="20" viewBox="0 0 20 20" fill="none" xmlns="http://www.w3.org/2000/svg">
<path fill-rule="evenodd" clip-rule="evenodd" d="M5.83335 18.3332C4.45263 18.3332 3.33335 17.2139 3.33335 15.8332V10.8332H2.50001C1.75759 10.8332 1.38579 9.93555 1.91076 9.41058L9.41076 1.91058C9.73619 1.58514 10.2638 1.58514 10.5893 1.91058L18.0893 9.41058C18.6142 9.93555 18.2424 10.8332 17.5 10.8332H16.6667V15.8332C16.6667 17.2139 15.5474 18.3332 14.1667 18.3332H5.83335ZM10 3.67837L4.4591 9.21928C4.77509 9.33771 5.00001 9.64252 5.00001 9.99986V15.8332C5.00001 16.2934 5.37311 16.6665 5.83334 16.6665L7.50001 16.6657L7.50001 13.3332C7.50001 12.4127 8.2462 11.6665 9.16668 11.6665H10.8333C11.7538 11.6665 12.5 12.4127 12.5 13.3332L12.5 16.6657L14.1667 16.6665C14.6269 16.6665 15 16.2934 15 15.8332V9.99986C15 9.64252 15.2249 9.33771 15.5409 9.21928L10 3.67837ZM10.8333 13.3332H9.16668L9.16668 16.6657H10.8333L10.8333 13.3332Z" fill="#2F6DCE"/>
</svg>
