<svg width="22" height="22" viewBox="0 0 22 22" fill="none" xmlns="http://www.w3.org/2000/svg">
<path fill-rule="evenodd" clip-rule="evenodd" d="M11 1.83331C15.5563 1.83331 19.25 5.48689 19.25 9.99381C19.25 12.9762 16.7545 16.1295 11.8692 19.5645L11 20.1666L10.4755 19.8047C5.36288 16.2762 2.75 13.0455 2.75 9.99381C2.75 5.48689 6.44365 1.83331 11 1.83331ZM11 3.64676C7.45617 3.64676 4.58333 6.48843 4.58333 9.99382C4.58333 12.1961 6.68866 14.8834 11 17.95C15.3113 14.8834 17.4167 12.1961 17.4167 9.99382C17.4167 6.48843 14.5438 3.64676 11 3.64676ZM11 5.49998C13.025 5.49998 14.6667 7.1416 14.6667 9.16665C14.6667 11.1917 13.025 12.8333 11 12.8333C8.97496 12.8333 7.33333 11.1917 7.33333 9.16665C7.33333 7.1416 8.97496 5.49998 11 5.49998ZM11 7.33331C9.98748 7.33331 9.16667 8.15412 9.16667 9.16665C9.16667 10.1792 9.98748 11 11 11C12.0125 11 12.8333 10.1792 12.8333 9.16665C12.8333 8.15412 12.0125 7.33331 11 7.33331Z" fill="#6F6F6F"/>
</svg>
