<svg width="18" height="18" viewBox="0 0 18 18" fill="none" xmlns="http://www.w3.org/2000/svg">
<path fill-rule="evenodd" clip-rule="evenodd" d="M9.8838 1.70912C10.2664 1.9004 10.5766 2.2106 10.7678 2.59316L16.2909 13.6392C16.7791 14.6157 16.3833 15.8031 15.4068 16.2913C15.1324 16.4286 14.8297 16.5 14.5228 16.5H3.47674C2.38501 16.5 1.49999 15.615 1.49999 14.5232C1.49999 14.2164 1.57144 13.9137 1.70868 13.6392L7.23171 2.59316C7.71995 1.61668 8.90733 1.22089 9.8838 1.70912ZM8.42791 3.35365L3.0675 14.0745C3.0231 14.1633 2.99998 14.2612 2.99998 14.3605C2.99998 14.7137 3.2863 15 3.6395 15H14.3603C14.4596 15 14.5575 14.9769 14.6463 14.9325C14.9622 14.7745 15.0903 14.3904 14.9323 14.0745L9.57191 3.35365C9.51003 3.22989 9.40968 3.12954 9.28591 3.06765C8.97 2.9097 8.58586 3.03775 8.42791 3.35365ZM8.99999 12C9.4142 12 9.74999 12.3358 9.74999 12.75C9.74999 13.1642 9.4142 13.5 8.99999 13.5C8.58577 13.5 8.24999 13.1642 8.24999 12.75C8.24999 12.3358 8.58577 12 8.99999 12ZM8.99999 6C9.4142 6 9.74999 6.33579 9.74999 6.75V9.75C9.74999 10.1642 9.4142 10.5 8.99999 10.5C8.58577 10.5 8.24999 10.1642 8.24999 9.75V6.75C8.24999 6.33579 8.58577 6 8.99999 6Z" fill="#E05C5C"/>
</svg>
